<mxfile host="app.diagrams.net" modified="2024-03-04T12:32:42.433Z" agent="Mozilla/5.0 (Macintosh; Intel Mac OS X 10_15_7) AppleWebKit/537.36 (KHTML, like Gecko) Chrome/121.0.0.0 Safari/537.36" version="21.7.5" etag="eZN6i-trg-FM7CyH4ES7" type="github">
  <diagram name="第 1 页" id="2ERhinOzmKYf8x6avzGO">
    <mxGraphModel>
      <root>
        <mxCell id="0" />
        <mxCell id="1" parent="0" />
      </root>
    </mxGraphModel>
  </diagram>
</mxfile>
